<svg xmlns="http://www.w3.org/2000/svg" xmlns:xlink="http://www.w3.org/1999/xlink" preserveAspectRatio="xMidYMid meet" version="1.0" viewBox="69.0 24.1 374.0 480.1" zoomAndPan="magnify"
fill="#6cc13c" 
original_string_length="1286"><g><g id="__id70_spy6xgcxkm"><path d="M308.019,367.077c45.455-71.563,95.131-150.998,95.131-194.277c0-82.016-66.715-148.74-148.72-148.74 c-82.016,0-148.74,66.724-148.74,148.74c0,40.78,51.645,124.544,95.598,194.519C136.911,373.397,68.98,391.75,68.98,426.4 c0,18.869,20.42,34.789,59.054,46.04C236.989,504.167,443.02,486.32,443.02,426.4C443.02,391.183,373.682,372.899,308.019,367.077 z M254.432,415.034C215.475,349.636,125.69,219.235,125.69,172.8c0-70.987,57.752-128.74,128.74-128.74 c70.976,0,128.72,57.752,128.72,128.74C383.15,222.279,293.808,349.064,254.432,415.034z" style="fill: inherit;"/><path d="M254.43,95.56c-39.701,0-72,32.303-72,72.01c0,39.69,32.299,71.98,72,71.98c39.69,0,71.98-32.29,71.98-71.98 C326.41,127.863,294.12,95.56,254.43,95.56z M254.43,219.55c-28.673,0-52-23.318-52-51.98c0-28.678,23.327-52.01,52-52.01 c28.662,0,51.98,23.332,51.98,52.01C306.41,196.231,283.092,219.55,254.43,219.55z" style="fill: inherit;"/></g></g></svg>