<svg width="24" height="24" viewBox="0 0 24 24" fill="none" xmlns="http://www.w3.org/2000/svg">
<g id="icon gear">
<path id="Vector" d="M13.9319 2.44375C13.364 0.51875 10.636 0.51875 10.0681 2.44375L9.93062 2.91125C9.84578 3.19944 9.6975 3.46499 9.49666 3.68842C9.29583 3.91184 9.04753 4.08749 8.76998 4.20246C8.49243 4.31744 8.19266 4.36883 7.89266 4.35288C7.59266 4.33692 7.30004 4.25402 7.03625 4.11025L6.61 3.8765C4.84587 2.91675 2.91675 4.84588 3.87787 6.60862L4.11025 7.03625C4.7235 8.16375 4.14188 9.56763 2.91125 9.93062L2.44375 10.0681C0.51875 10.636 0.51875 13.364 2.44375 13.9319L2.91125 14.0694C3.19944 14.1542 3.46499 14.3025 3.68842 14.5033C3.91184 14.7042 4.08749 14.9525 4.20246 15.23C4.31744 15.5076 4.36883 15.8073 4.35288 16.1073C4.33692 16.4073 4.25402 16.7 4.11025 16.9637L3.8765 17.39C2.91675 19.1541 4.84588 21.0833 6.60862 20.1221L7.03625 19.8897C7.30004 19.746 7.59266 19.6631 7.89266 19.6471C8.19266 19.6312 8.49243 19.6826 8.76998 19.7975C9.04753 19.9125 9.29583 20.0882 9.49666 20.3116C9.6975 20.535 9.84578 20.8006 9.93062 21.0887L10.0681 21.5562C10.636 23.4812 13.364 23.4812 13.9319 21.5562L14.0694 21.0887C14.1542 20.8006 14.3025 20.535 14.5033 20.3116C14.7042 20.0882 14.9525 19.9125 15.23 19.7975C15.5076 19.6826 15.8073 19.6312 16.1073 19.6471C16.4073 19.6631 16.7 19.746 16.9637 19.8897L17.39 20.1235C19.1541 21.0833 21.0833 19.1541 20.1221 17.3914L19.8897 16.9637C19.746 16.7 19.6631 16.4073 19.6471 16.1073C19.6312 15.8073 19.6826 15.5076 19.7975 15.23C19.9125 14.9525 20.0882 14.7042 20.3116 14.5033C20.535 14.3025 20.8006 14.1542 21.0887 14.0694L21.5562 13.9319C23.4812 13.364 23.4812 10.636 21.5562 10.0681L21.0887 9.93062C20.8006 9.84578 20.535 9.6975 20.3116 9.49666C20.0882 9.29583 19.9125 9.04753 19.7975 8.76998C19.6826 8.49243 19.6312 8.19266 19.6471 7.89266C19.6631 7.59266 19.746 7.30004 19.8897 7.03625L20.1235 6.61C21.0833 4.84587 19.1541 2.91675 17.3914 3.87787L16.9637 4.11025C16.7 4.25402 16.4073 4.33692 16.1073 4.35288C15.8073 4.36883 15.5076 4.31744 15.23 4.20246C14.9525 4.08749 14.7042 3.91184 14.5033 3.68842C14.3025 3.46499 14.1542 3.19944 14.0694 2.91125L13.9319 2.44375ZM12 16.0288C10.9315 16.0288 9.90678 15.6043 9.15124 14.8488C8.39571 14.0932 7.97125 13.0685 7.97125 12C7.97125 10.9315 8.39571 9.90678 9.15124 9.15124C9.90678 8.39571 10.9315 7.97125 12 7.97125C13.0681 7.97125 14.0925 8.39556 14.8478 9.15084C15.6031 9.90612 16.0274 10.9305 16.0274 11.9986C16.0274 13.0668 15.6031 14.0911 14.8478 14.8464C14.0925 15.6017 13.0681 16.026 12 16.026V16.0288Z" fill="black"/>
</g>
</svg>
